<svg width="24" height="24" viewBox="0 0 24 24" fill="none" xmlns="http://www.w3.org/2000/svg">
<path d="M12.0273 0H11.9727C5.36035 0 0 5.36035 0 11.9727V12.0273C0 18.6397 5.36035 24 11.9727 24H12.0273C18.6397 24 24 18.6397 24 12.0273V11.9727C24 5.36035 18.6397 0 12.0273 0Z" fill="url(#paint0_linear_86_351)"/>
<path d="M15.7136 4.88281H8.28729C6.23565 4.88281 4.56659 6.55187 4.56659 8.60351V15.3975C4.56659 17.4491 6.23565 19.1182 8.28729 19.1182H15.7136C17.7652 19.1182 19.4343 17.4491 19.4343 15.3975V8.60351C19.4343 6.55187 17.7652 4.88281 15.7136 4.88281ZM5.87914 8.60351C5.87914 7.27583 6.95961 6.19536 8.28729 6.19536H15.7136C17.0412 6.19536 18.1217 7.27583 18.1217 8.60351V15.3975C18.1217 16.7252 17.0412 17.8056 15.7136 17.8056H8.28729C6.95961 17.8056 5.87914 16.7252 5.87914 15.3975V8.60351Z" fill="white"/>
<path d="M12.0004 15.4608C13.9083 15.4608 15.4613 13.9086 15.4613 11.9999C15.4613 10.0912 13.9091 8.53906 12.0004 8.53906C10.0917 8.53906 8.53955 10.0912 8.53955 11.9999C8.53955 13.9086 10.0917 15.4608 12.0004 15.4608ZM12.0004 9.85245C13.1852 9.85245 14.1488 10.816 14.1488 12.0008C14.1488 13.1855 13.1852 14.1491 12.0004 14.1491C10.8157 14.1491 9.8521 13.1855 9.8521 12.0008C9.8521 10.816 10.8157 9.85245 12.0004 9.85245Z" fill="white"/>
<path d="M15.7817 9.0974C16.2954 9.0974 16.7142 8.6795 16.7142 8.16491C16.7142 7.65032 16.2963 7.23242 15.7817 7.23242C15.2671 7.23242 14.8492 7.65032 14.8492 8.16491C14.8492 8.6795 15.2671 9.0974 15.7817 9.0974Z" fill="white"/>
<defs>
<linearGradient id="paint0_linear_86_351" x1="3.50629" y1="20.4937" x2="20.4937" y2="3.50713" gradientUnits="userSpaceOnUse">
<stop stop-color="#FAAD4F"/>
<stop offset="0.35" stop-color="#DD2A7B"/>
<stop offset="0.62" stop-color="#9537B0"/>
<stop offset="1" stop-color="#515BD4"/>
</linearGradient>
</defs>
</svg>
