<svg width="24" height="24" viewBox="0 0 24 24" fill="none" xmlns="http://www.w3.org/2000/svg">
<path d="M12.0273 0H11.9727C5.36036 0 0 5.36035 0 11.9727V12.0273C0 18.6397 5.36036 24 11.9727 24H12.0273C18.6396 24 24 18.6397 24 12.0273V11.9727C24 5.36035 18.6396 0 12.0273 0Z" fill="#007EBB"/>
<path d="M5.72358 7.97795C5.40742 7.6845 5.2502 7.32126 5.2502 6.88907C5.2502 6.45688 5.40827 6.07766 5.72358 5.78337C6.03973 5.48992 6.4467 5.34277 6.94532 5.34277C7.44393 5.34277 7.83493 5.48992 8.15024 5.78337C8.4664 6.07682 8.62362 6.44595 8.62362 6.88907C8.62362 7.33219 8.46555 7.6845 8.15024 7.97795C7.83409 8.27141 7.433 8.41855 6.94532 8.41855C6.45763 8.41855 6.03973 8.27141 5.72358 7.97795ZM8.35793 9.66131V18.6583H5.51505V9.66131H8.35793Z" fill="#FEFFFC"/>
<path d="M17.8215 10.55C18.4412 11.2227 18.7506 12.1459 18.7506 13.3214V18.4993H16.0507V13.6863C16.0507 13.0936 15.8968 12.6328 15.5899 12.3048C15.283 11.9769 14.8693 11.8121 14.3514 11.8121C13.8334 11.8121 13.4197 11.9761 13.1128 12.3048C12.8059 12.6328 12.652 13.0936 12.652 13.6863V18.4993H9.93613V9.63603H12.652V10.8115C12.927 10.4197 13.2978 10.1103 13.7636 9.8824C14.2294 9.65453 14.7533 9.54102 15.336 9.54102C16.3736 9.54102 17.2026 9.87735 17.8215 10.55Z" fill="#FEFFFC"/>
</svg>
