<svg width="46" height="30" viewBox="0 0 46 30" fill="none" xmlns="http://www.w3.org/2000/svg">
<path d="M35.5077 30C34.0201 30 32.6629 29.7671 31.4363 29.3014C30.2096 28.8082 29.1656 28.137 28.3044 27.2877C27.4431 26.411 26.7645 25.3562 26.2687 24.1233C25.7989 22.8904 25.564 21.5205 25.564 20.0137C25.564 18.4521 25.825 16.8219 26.347 15.1233C26.895 13.4247 27.678 11.7123 28.6959 9.9863C29.7137 8.26027 30.9404 6.56164 32.3758 4.89041C33.8374 3.19178 35.4947 1.56164 37.3477 0L41.8498 3.69863C40.9885 4.63014 40.2055 5.52055 39.5009 6.36986C38.8223 7.21918 38.1959 8.06849 37.6217 8.91781C37.0476 9.76712 36.5125 10.6438 36.0166 11.5479C35.5469 12.4521 35.1162 13.411 34.7247 14.4247L45.3731 20.0137C45.3731 21.4932 45.0991 22.8493 44.551 24.0822C44.029 25.3151 43.3244 26.3699 42.437 27.2466C41.5496 28.1233 40.5057 28.8082 39.3051 29.3014C38.1046 29.7671 36.8388 30 35.5077 30ZM9.94372 30C8.45608 30 7.09893 29.7671 5.87228 29.3014C4.64562 28.8082 3.60166 28.137 2.7404 27.2877C1.87913 26.411 1.20055 25.3562 0.704673 24.1233C0.234891 22.8904 0 21.5205 0 20.0137C0 18.4521 0.26099 16.8219 0.78297 15.1233C1.33105 13.4247 2.11402 11.7123 3.13188 9.9863C4.14974 8.26027 5.3764 6.56164 6.81184 4.89041C8.27339 3.19178 9.93067 1.56164 11.7837 0L16.2858 3.69863C15.4245 4.63014 14.6415 5.52055 13.9369 6.36986C13.2583 7.21918 12.6319 8.06849 12.0577 8.91781C11.4836 9.76712 10.9485 10.6438 10.4527 11.5479C9.98287 12.4521 9.55224 13.411 9.16075 14.4247L19.8092 20.0137C19.8092 21.4932 19.5351 22.8493 18.987 24.0822C18.4651 25.3151 17.7604 26.3699 16.873 27.2466C15.9856 28.1233 14.9417 28.8082 13.7411 29.3014C12.5406 29.7671 11.2748 30 9.94372 30Z" fill="#FA8109"/>
</svg>
